# xmcd
# 
# Track frame offsets:
#     150
#     16440
#     35287
#     52822
#     69077
#     84805
#     103142
#     120762
#     136362
#     153440
#     176792
#     197210
#     215280
#     239627
# 
# Disc length: 3431
# 
# Revision: 1
# Processed by: cddbd v1.5.2PL0 Copyright (c) Steve Scherf et al.
# Submitted via: BonkEnc v1.0.6
# 
DISCID=b10d650e
DTITLE=The Raymond Walker Quintet - Jazz for the Evening
DYEAR=2002
DGENRE=Blues
TTITLE0=Take Five
TTITLE1=When Lights Are Low
TTITLE2=Autumn Leaves
TTITLE3=Bye Bye Blackbird
TTITLE4=My Romance
TTITLE5=Manha de Carnaval
TTITLE6=All the Things You Are
TTITLE7=I Thought About You
TTITLE8=Come Rain or Come Shine
TTITLE9=Love For Sale
TTITLE10=Summertime
TTITLE11=Yesterdays
TTITLE12=Night and Day
TTITLE13=What Is This Thing Called Love?
EXTD=
EXTT0=
EXTT1=
EXTT2=
EXTT3=
EXTT4=
EXTT5=
EXTT6=
EXTT7=
EXTT8=
EXTT9=
EXTT10=
EXTT11=
EXTT12=
EXTT13=
PLAYORDER=
